<svg width="512" height="512" viewBox="0 0 680 680" xmlns="http://www.w3.org/2000/svg">
<rect x="0" y="0" width="680" height="680" rx="120" fill="#f4ecd8"/>
<path d="M 140 380 
         L 200 340 
         L 230 280 
         L 300 260 
         L 340 200 
         L 410 190 
         L 470 230 
         L 540 220 
         L 560 300 
         L 520 360 
         L 540 420 
         L 480 460 
         L 460 520 
         L 380 540 
         L 320 500 
         L 250 510 
         L 200 460 
         L 160 430 
         Z"
      fill="#3a6b4f" stroke="#2c5440" stroke-width="3"/>
<path d="M 290 320 L 340 230 L 380 290 L 420 250 L 460 310 Z" fill="#f4ecd8" opacity="0.9"/>
<path d="M 340 230 L 355 255 L 325 255 Z" fill="#cfe6dc"/>
<path d="M 420 250 L 432 270 L 408 270 Z" fill="#cfe6dc"/>
</svg>